HIERARCHY
ROOT Hips
{
	OFFSET	0.00	0.00	0.00
	CHANNELS 6 Xposition Yposition Zposition Zrotation Xrotation Yrotation
	JOINT LeftUpLeg
	{
		OFFSET	 0.126116	-0.014019	-0.065224
		CHANNELS 3 Zrotation Xrotation Yrotation
		JOINT LeftLeg
		{
			OFFSET	 0.000000	 0.000000	 0.569914
			CHANNELS 3 Zrotation Xrotation Yrotation
			JOINT LeftFoot
			{
				OFFSET	 0.000000	 0.000000	 0.544423
				CHANNELS 3 Zrotation Xrotation Yrotation
				JOINT LeftToeBase
				{
					OFFSET	 0.000000	 0.000000	 0.207117
					CHANNELS 3 Zrotation Xrotation Yrotation
					End Site
					{
						OFFSET	 0.000000	 0.000000	 0.207117
					}
				}
			}
		}
	}
	JOINT RightUpLeg
	{
		OFFSET	-0.124023	-0.008373	-0.065224
		CHANNELS 3 Zrotation Xrotation Yrotation
		JOINT RightLeg
		{
			OFFSET	 0.000000	 0.000000	 0.570047
			CHANNELS 3 Zrotation Xrotation Yrotation
			JOINT RightFoot
			{
				OFFSET	 0.000000	 0.000000	 0.544354
				CHANNELS 3 Zrotation Xrotation Yrotation
				JOINT RightToeBase
				{
					OFFSET	 0.000000	 0.000000	 0.207540
					CHANNELS 3 Zrotation Xrotation Yrotation
					End Site
					{
						OFFSET	 0.000000	 0.000000	 0.207540
					}
				}
			}
		}
	}
	JOINT Spine
	{
		OFFSET	 0.000184	-0.007763	 0.117403
		CHANNELS 3 Zrotation Xrotation Yrotation
		JOINT Spine1
		{
			OFFSET	 0.000000	 0.000000	 0.137269
			CHANNELS 3 Zrotation Xrotation Yrotation
			JOINT Spine2
			{
				OFFSET	 0.000000	 0.000000	 0.156879
				CHANNELS 3 Zrotation Xrotation Yrotation
				JOINT LeftShoulder
				{
					OFFSET	 0.080501	-0.002496	 0.160144
					CHANNELS 3 Zrotation Xrotation Yrotation
					JOINT LeftArm
					{
						OFFSET	 0.000000	 0.000000	 0.164363
						CHANNELS 3 Zrotation Xrotation Yrotation
						JOINT LeftForeArm
						{
							OFFSET	 0.000000	 0.000000	 0.364576
							CHANNELS 3 Zrotation Xrotation Yrotation
							JOINT LeftHand
							{
								OFFSET	 0.000000	 0.000000	 0.360812
								CHANNELS 3 Zrotation Xrotation Yrotation
								JOINT LeftHandIndex1
								{
									OFFSET	 0.000000	 0.000000	 0.086006
									CHANNELS 3 Zrotation Xrotation Yrotation
									JOINT LeftHandIndex2
									{
										OFFSET	 0.000000	 0.000000	 0.047236
										CHANNELS 3 Zrotation Xrotation Yrotation
										JOINT LeftHandIndex3
										{
											OFFSET	-0.004284	-0.000551	 0.038166
											CHANNELS 3 Zrotation Xrotation Yrotation
											End Site
											{
												OFFSET	-0.004284	-0.000551	 0.038166
											}
										}
									}
								}
							}
						}
					}
				}
				JOINT Neck
				{
					OFFSET	 0.000000	 0.000000	 0.176489
					CHANNELS 3 Zrotation Xrotation Yrotation
					JOINT Head
					{
						OFFSET	 0.000000	-0.001747	 0.077940
						CHANNELS 3 Zrotation Xrotation Yrotation
						End Site
						{
							OFFSET	 0.000000	-0.001747	 0.077940
						}
					}
				}
				JOINT RightShoulder
				{
					OFFSET	-0.080363	 0.000306	 0.159706
					CHANNELS 3 Zrotation Xrotation Yrotation
					JOINT RightArm
					{
						OFFSET	 0.000000	 0.000000	 0.164196
						CHANNELS 3 Zrotation Xrotation Yrotation
						JOINT RightForeArm
						{
							OFFSET	 0.000000	 0.000000	 0.365611
							CHANNELS 3 Zrotation Xrotation Yrotation
							JOINT RightHand
							{
								OFFSET	 0.000000	 0.000000	 0.360648
								CHANNELS 3 Zrotation Xrotation Yrotation
								JOINT RightHandIndex1
								{
									OFFSET	 0.000000	 0.000000	 0.069977
									CHANNELS 3 Zrotation Xrotation Yrotation
									JOINT RightHandIndex2
									{
										OFFSET	 0.000000	 0.000000	 0.052305
										CHANNELS 3 Zrotation Xrotation Yrotation
										JOINT RightHandIndex3
										{
											OFFSET	 0.009002	-0.000782	 0.042196
											CHANNELS 3 Zrotation Xrotation Yrotation
											End Site
											{
												OFFSET	 0.009002	-0.000782	 0.042196
											}
										}
									}
								}
							}
						}
					}
				}
			}
		}
	}
}
MOTION
Frames:    5
Frame Time: 0.03333334
-0.000646	 0.019776	 1.270545	 0.002587	-0.001172	-0.189428	 13.843420	-1.840806	 175.649300	 1.496326	-9.921901	-0.576576	-9.850197	 68.892310	 4.108045	-2.385833	 28.452760	 0.000004	-13.880330	-2.862383	-175.405200	-1.466804	-11.375990	 0.651004	 9.889050	 69.545410	-4.273339	 2.384658	 28.388730	 0.000004	 3.383725	 2.770321	-0.109375	 2.181439	 3.586519	 0.863115	-6.566341	-4.376467	-1.422391	-91.776180	 78.527450	 180.000000	 45.969790	 33.233520	-62.124130	-8.646356	 0.181208	-0.642285	-29.458490	 0.034166	-4.349700	-2.635965	 4.993658	 6.788941	-5.165319	 0.784187	 3.516649	-5.225038	 0.466231	 0.424329	-0.000002	-3.783157	-0.089647	-6.387559	 4.669443	 0.260682	 89.782140	 78.203900	 180.000000	-62.155440	 41.210620	 57.323730	 8.688535	 0.212509	 0.670481	 28.946740	-0.755215	 8.952672	 6.112037	 4.509576	-0.364401	 4.968462	 1.518543	-9.347576	 5.168945	 0.703820	 2.021906
-0.000645	 0.020027	 1.266834	 0.002724	-0.001413	-0.187849	 14.703070	-3.750621	 175.729800	 1.450238	-13.672310	-0.801850	-11.054910	 70.685510	 5.395121	-2.385833	 28.452760	 0.000004	-14.745020	-4.607311	-175.476300	-1.420935	-14.779130	 0.853638	 11.000170	 71.170950	-5.455709	 2.384658	 28.388730	 0.000004	-1.196761	 2.802266	-0.114371	 2.178463	 3.475261	 0.868784	-6.559207	-4.234141	-1.410736	-91.776080	 78.527470	 179.999900	 45.792550	 33.088890	-61.884430	-11.116990	 0.263216	-1.694403	-29.901760	 0.137801	-4.348656	-2.635965	 4.993658	 6.788941	-5.165319	 0.784187	 3.516649	-5.225038	 0.466231	 0.424329	-0.000002	-3.783157	-0.089647	-6.387254	 4.737039	 0.264448	 89.782070	 78.203890	-180.000000	-61.562280	 40.929230	 57.952650	 10.955270	 0.294256	 1.722487	 29.273320	-0.714937	 8.889688	 6.112037	 4.509576	-0.364401	 4.968462	 1.518543	-9.347576	 5.168945	 0.703820	 2.021906
-0.000642	 0.020292	 1.262949	 0.002850	-0.001654	-0.185950	 15.638370	-5.342450	 175.778100	 1.400199	-16.756580	-0.992485	-12.216130	 72.135810	 6.623802	-2.385833	 28.452760	 0.000004	-15.681120	-6.107879	-175.523200	-1.371473	-17.667350	 1.030619	 12.093380	 72.530130	-6.608788	 2.384658	 28.388730	 0.000004	-5.558257	 2.835816	-0.119387	 2.172892	 3.358325	 0.873793	-6.544192	-4.085087	-1.396976	-91.776130	 78.527490	 180.000000	 45.600400	 32.931310	-61.618710	-13.491980	 0.428435	-2.700233	-30.330580	 0.237875	-4.346387	-2.635965	 4.993658	 6.788941	-5.165319	 0.784187	 3.516649	-5.225038	 0.466231	 0.424329	-0.000002	-3.783157	-0.089647	-6.379539	 4.808988	 0.268144	 89.782120	 78.203890	 180.000000	-60.818600	 40.594440	 58.856630	 13.100180	 0.459142	 2.728814	 29.596570	-0.688038	 8.825624	 6.112037	 4.509576	-0.364401	 4.968462	 1.518543	-9.347576	 5.168945	 0.703820	 2.021906
-0.000639	 0.020534	 1.259425	 0.002962	-0.001860	-0.184093	 16.501810	-6.582938	 175.804600	 1.353631	-19.133130	-1.143600	-13.237910	 73.237110	 7.697217	-2.385833	 28.452760	 0.000004	-16.544020	-7.297517	-175.551900	-1.325456	-19.932080	 1.173381	 13.066750	 73.581990	-7.628599	 2.384658	 28.388730	 0.000004	-9.265061	 2.866181	-0.123638	 2.165686	 3.252400	 0.877345	-6.523962	-3.950525	-1.383118	-91.776180	 78.527450	 180.000000	 45.419720	 32.783530	-61.363160	-15.544520	 0.639713	-3.562847	-30.705240	 0.325047	-4.343355	-2.635965	 4.993658	 6.788941	-5.165319	 0.784187	 3.516649	-5.225038	 0.466231	 0.424329	-0.000002	-3.783157	-0.089647	-6.365965	 4.874974	 0.271249	 89.782160	 78.203900	 179.999900	-60.094720	 40.136480	 59.939550	 14.826540	 0.669110	 3.592118	 30.010320	-0.801387	 8.700585	 6.112037	 4.509576	-0.364401	 4.968462	 1.518543	-9.347576	 5.168945	 0.703820	 2.021906
-0.000635	 0.020790	 1.255731	 0.003064	-0.002069	-0.181935	 17.413560	-7.745582	 175.821300	 1.303733	-21.338980	-1.287799	-14.303790	 74.245890	 8.810618	-2.385833	 28.452760	 0.000004	-17.454930	-8.422900	-175.573000	-1.276172	-22.054290	 1.310925	 14.088590	 74.555940	-8.693406	 2.384658	 28.388730	 0.000004	-12.901850	 2.897835	-0.127832	 2.155969	 3.141926	 0.880122	-6.496051	-3.810677	-1.367343	-91.776320	 78.527470	-179.999900	 45.224850	 32.622090	-61.080270	-17.609120	 0.916917	-4.421374	-31.087090	 0.413496	-4.339283	-2.635965	 4.993658	 6.788941	-5.165319	 0.784187	 3.516649	-5.225038	 0.466231	 0.424329	-0.000002	-3.783157	-0.089647	-6.345047	 4.944578	 0.274221	 89.782100	 78.203900	 180.000000	-58.373550	 39.208180	 58.154620	 16.328540	 3.846063	 9.078637	 30.466090	-0.958777	 8.554674	 6.112037	 4.509576	-0.364401	 4.968462	 1.518543	-9.347576	 5.168945	 0.703820	 2.021906
